<?xml version="1.0" encoding="UTF-8" standalone="no"?>
<svg
   xmlns:dc="http://purl.org/dc/elements/1.1/"
   xmlns:cc="http://creativecommons.org/ns#"
   xmlns:rdf="http://www.w3.org/1999/02/22-rdf-syntax-ns#"
   xmlns:svg="http://www.w3.org/2000/svg"
   xmlns="http://www.w3.org/2000/svg"
   xmlns:xlink="http://www.w3.org/1999/xlink"
   xmlns:sodipodi="http://sodipodi.sourceforge.net/DTD/sodipodi-0.dtd"
   xmlns:inkscape="http://www.inkscape.org/namespaces/inkscape"
   width="762.96899mm"
   height="369.2731mm"
   viewBox="0 0 762.96899 369.2731"
   version="1.1"
   id="svg11148"
   inkscape:version="1.0.2-2 (e86c870879, 2021-01-15)"
   sodipodi:docname="light_openMINDS-chem-logo.svg"
   inkscape:export-filename="C:\Users\ulrik\Desktop\PhD\openMINDS\logo\light_openMINDS-chem-logo.png"
   inkscape:export-xdpi="50"
   inkscape:export-ydpi="50">
  <defs
     id="defs11142">
    <linearGradient
       gradientUnits="userSpaceOnUse"
       y2="100"
       x2="200"
       y1="100"
       x1="0.5"
       id="linear-gradient">
      <stop
         id="stop15253"
         stop-color="#f7db2e"
         offset="0" />
      <stop
         id="stop15255"
         stop-color="#82c558"
         offset="0.5" />
      <stop
         id="stop15257"
         stop-color="#127e7a"
         offset="1" />
    </linearGradient>
    <inkscape:path-effect
       effect="bspline"
       id="path-effect8596"
       is_visible="true"
       weight="33.333333"
       steps="2"
       helper_size="0"
       apply_no_weight="true"
       apply_with_weight="true"
       only_selected="false"
       lpeversion="0" />
    <inkscape:path-effect
       effect="bspline"
       id="path-effect8598"
       is_visible="true"
       weight="33.333333"
       steps="2"
       helper_size="0"
       apply_no_weight="true"
       apply_with_weight="true"
       only_selected="false"
       lpeversion="0" />
    <inkscape:path-effect
       effect="bspline"
       id="path-effect8600"
       is_visible="true"
       weight="33.333333"
       steps="2"
       helper_size="0"
       apply_no_weight="true"
       apply_with_weight="true"
       only_selected="false"
       lpeversion="0" />
    <inkscape:path-effect
       effect="bspline"
       id="path-effect8602"
       is_visible="true"
       weight="33.333333"
       steps="2"
       helper_size="0"
       apply_no_weight="true"
       apply_with_weight="true"
       only_selected="false"
       lpeversion="0" />
    <inkscape:path-effect
       effect="bspline"
       id="path-effect8604"
       is_visible="true"
       weight="33.333333"
       steps="2"
       helper_size="0"
       apply_no_weight="true"
       apply_with_weight="true"
       only_selected="false"
       lpeversion="0" />
    <inkscape:path-effect
       effect="bspline"
       id="path-effect8606"
       is_visible="true"
       weight="33.333333"
       steps="2"
       helper_size="0"
       apply_no_weight="true"
       apply_with_weight="true"
       only_selected="false"
       lpeversion="0" />
    <inkscape:path-effect
       effect="bspline"
       id="path-effect8608"
       is_visible="true"
       weight="33.333333"
       steps="2"
       helper_size="0"
       apply_no_weight="true"
       apply_with_weight="true"
       only_selected="false"
       lpeversion="0" />
    <inkscape:path-effect
       effect="bspline"
       id="path-effect8610"
       is_visible="true"
       weight="33.333333"
       steps="2"
       helper_size="0"
       apply_no_weight="true"
       apply_with_weight="true"
       only_selected="false"
       lpeversion="0" />
    <inkscape:path-effect
       effect="bspline"
       id="path-effect8612"
       is_visible="true"
       weight="33.333333"
       steps="2"
       helper_size="0"
       apply_no_weight="true"
       apply_with_weight="true"
       only_selected="false"
       lpeversion="0" />
    <inkscape:path-effect
       effect="bspline"
       id="path-effect8614"
       is_visible="true"
       weight="33.333333"
       steps="2"
       helper_size="0"
       apply_no_weight="true"
       apply_with_weight="true"
       only_selected="false"
       lpeversion="0" />
    <linearGradient
       inkscape:collect="always"
       xlink:href="#linear-gradient"
       id="linearGradient9678"
       gradientUnits="userSpaceOnUse"
       gradientTransform="translate(6435.0207,2722.4887)"
       x1="-6012.9951"
       y1="-2083.6816"
       x2="-6012.9951"
       y2="-2217.5669" />
    <inkscape:path-effect
       effect="bspline"
       id="path-effect9558"
       is_visible="true"
       weight="33.333333"
       steps="2"
       helper_size="0"
       apply_no_weight="true"
       apply_with_weight="true"
       only_selected="false"
       lpeversion="0" />
    <inkscape:path-effect
       effect="bspline"
       id="path-effect9560"
       is_visible="true"
       weight="33.333333"
       steps="2"
       helper_size="0"
       apply_no_weight="true"
       apply_with_weight="true"
       only_selected="false"
       lpeversion="0" />
    <inkscape:path-effect
       effect="bspline"
       id="path-effect9562"
       is_visible="true"
       weight="33.333333"
       steps="2"
       helper_size="0"
       apply_no_weight="true"
       apply_with_weight="true"
       only_selected="false"
       lpeversion="0" />
    <inkscape:path-effect
       effect="bspline"
       id="path-effect9564"
       is_visible="true"
       weight="33.333333"
       steps="2"
       helper_size="0"
       apply_no_weight="true"
       apply_with_weight="true"
       only_selected="false"
       lpeversion="0" />
    <inkscape:path-effect
       effect="bspline"
       id="path-effect9566"
       is_visible="true"
       weight="33.333333"
       steps="2"
       helper_size="0"
       apply_no_weight="true"
       apply_with_weight="true"
       only_selected="false"
       lpeversion="0" />
    <inkscape:path-effect
       effect="bspline"
       id="path-effect9568"
       is_visible="true"
       weight="33.333333"
       steps="2"
       helper_size="0"
       apply_no_weight="true"
       apply_with_weight="true"
       only_selected="false"
       lpeversion="0" />
    <inkscape:path-effect
       effect="bspline"
       id="path-effect9570"
       is_visible="true"
       weight="33.333333"
       steps="2"
       helper_size="0"
       apply_no_weight="true"
       apply_with_weight="true"
       only_selected="false"
       lpeversion="0" />
    <inkscape:path-effect
       effect="bspline"
       id="path-effect9572"
       is_visible="true"
       weight="33.333333"
       steps="2"
       helper_size="0"
       apply_no_weight="true"
       apply_with_weight="true"
       only_selected="false"
       lpeversion="0" />
    <inkscape:path-effect
       effect="bspline"
       id="path-effect9574"
       is_visible="true"
       weight="33.333333"
       steps="2"
       helper_size="0"
       apply_no_weight="true"
       apply_with_weight="true"
       only_selected="false"
       lpeversion="0" />
    <inkscape:path-effect
       effect="bspline"
       id="path-effect9576"
       is_visible="true"
       weight="33.333333"
       steps="2"
       helper_size="0"
       apply_no_weight="true"
       apply_with_weight="true"
       only_selected="false"
       lpeversion="0" />
  </defs>
  <sodipodi:namedview
     id="base"
     pagecolor="#ffffff"
     bordercolor="#666666"
     borderopacity="1.0"
     inkscape:pageopacity="0.0"
     inkscape:pageshadow="2"
     inkscape:zoom="0.2107575"
     inkscape:cx="-342.5185"
     inkscape:cy="1456.1045"
     inkscape:document-units="mm"
     inkscape:current-layer="layer1"
     inkscape:document-rotation="0"
     showgrid="false"
     inkscape:window-width="1920"
     inkscape:window-height="1001"
     inkscape:window-x="1911"
     inkscape:window-y="-9"
     inkscape:window-maximized="1"
     fit-margin-top="0"
     lock-margins="true"
     fit-margin-left="0"
     fit-margin-right="0"
     fit-margin-bottom="0" />
  <metadata
     id="metadata11145">
    <rdf:RDF>
      <cc:Work
         rdf:about="">
        <dc:format>image/svg+xml</dc:format>
        <dc:type
           rdf:resource="http://purl.org/dc/dcmitype/StillImage" />
        <dc:title></dc:title>
      </cc:Work>
    </rdf:RDF>
  </metadata>
  <g
     inkscape:label="Ebene 1"
     inkscape:groupmode="layer"
     id="layer1"
     transform="translate(271.115,87.1187)">
    <g
       id="g1023"
       transform="translate(-54.946003,-432.9904)">
      <path
         inkscape:export-ydpi="50"
         inkscape:export-xdpi="50"
         sodipodi:nodetypes="cccc"
         inkscape:connector-curvature="0"
         id="path1486-5-5-5-1-5-9-0-19-4-0"
         d="M 330.18,468.6095 V 675.6293 L 220.816,467.9543 v 207.0192"
         style="fill:none;stroke:#000000;stroke-width:15;stroke-linecap:round;stroke-linejoin:round;stroke-miterlimit:4;stroke-dasharray:none;stroke-opacity:1" />
      <path
         inkscape:export-ydpi="50"
         inkscape:export-xdpi="50"
         sodipodi:nodetypes="ccccc"
         inkscape:connector-curvature="0"
         id="path1908-1-5-79-2-0-88-5-5-0-8"
         d="M -54.385,707.5379 V 467.9536 l 88.481,69.0685 88.484,-69.0685 v 207.0199"
         style="fill:none;stroke:#000000;stroke-width:15;stroke-linecap:round;stroke-linejoin:round;stroke-miterlimit:4;stroke-dasharray:none;stroke-opacity:1" />
      <path
         style="fill:none;fill-opacity:1;stroke:#000000;stroke-width:15;stroke-linecap:round;stroke-linejoin:round;stroke-miterlimit:4;stroke-dasharray:none;stroke-dashoffset:0;stroke-opacity:1"
         d="m -127.735,388.2549 c 0,17.8037 -18.118,34.8823 -40.467,34.8823 -22.35,0 -40.467,-17.0786 -40.467,-34.8823 0,-17.8038 18.117,-34.8824 40.467,-34.8824 22.349,0 40.467,17.0786 40.467,34.8824 z"
         id="path1910-6-6-8-8-7-5-89-7-0-2-7"
         inkscape:connector-curvature="0"
         sodipodi:nodetypes="sssss" />
      <path
         sodipodi:nodetypes="cccssscc"
         inkscape:connector-curvature="0"
         id="path1942-5-1-9-0-95-4-2-4-4-3"
         d="m -107.737,473.5129 v -50.3756 m 0,-69.7107 36.994,-0.054 c 22.349,-0.04 40.467,17.0787 40.467,34.8825 0,17.8036 -18.118,34.8821 -40.467,34.8821 h -36.994 z"
         style="fill:none;stroke:#000000;stroke-width:15;stroke-linecap:round;stroke-linejoin:round;stroke-miterlimit:4;stroke-dasharray:none;stroke-opacity:1" />
      <g
         inkscape:export-ydpi="50"
         inkscape:export-xdpi="50"
         style="stroke-width:9.92515;stroke-miterlimit:4;stroke-dasharray:none"
         transform="matrix(1.5113121,0,0,1.5113121,160.251,375.213)"
         id="g1996-8-1-58-6-6-47-3-2-2-7">
        <path
           style="opacity:1;fill:none;fill-opacity:1;stroke:#000000;stroke-width:9.92515;stroke-linecap:round;stroke-linejoin:round;stroke-miterlimit:4;stroke-dasharray:none;stroke-dashoffset:0;stroke-opacity:1"
           d="m -64.944758,22.900443 c -5.800014,5.679036 -14.834199,8.70694 -21.116025,8.80986 -14.788057,0 -26.776137,-11.300517 -26.776137,-23.0808293 m 0,0 c 0,-11.7803118 11.98808,-23.0808287 26.776137,-23.0808297 14.788054,0 26.77614,11.300517 26.77614,23.0808297 z"
           id="path1910-6-3-1-0-87-3-4-3-0-1-14-14"
           inkscape:connector-curvature="0"
           sodipodi:nodetypes="ccccscc" />
      </g>
      <g
         inkscape:export-ydpi="50"
         inkscape:export-xdpi="50"
         style="stroke-width:9.92515;stroke-miterlimit:4;stroke-dasharray:none"
         transform="matrix(1.5113121,0,0,1.5113121,140.312,366.0071)"
         id="g2033-8-98-9-6-3-4-7-4-9-6">
        <path
           style="opacity:1;fill:none;fill-opacity:1;stroke:#000000;stroke-width:9.92515;stroke-linecap:round;stroke-linejoin:round;stroke-miterlimit:4;stroke-dasharray:none;stroke-dashoffset:0;stroke-opacity:1"
           d="m -32.785292,14.755479 c 0,-11.7803139 11.988086,-23.080635 26.77614,-23.080635 14.788054,0 26.776152,11.3000415 26.776152,23.080355 V 204.43589"
           id="path1910-6-7-3-5-2-3-7-50-5-5-1-0"
           inkscape:connector-curvature="0"
           sodipodi:nodetypes="cssc" />
        <path
           style="fill:none;stroke:#000000;stroke-width:9.92515;stroke-linecap:round;stroke-linejoin:round;stroke-miterlimit:4;stroke-dasharray:none;stroke-opacity:1"
           d="m -32.785042,-8.2893725 -2.5e-4,23.0448515 2.5e-4,23.116521"
           id="path2028-2-0-71-7-8-4-8-2-5-1"
           inkscape:connector-curvature="0"
           sodipodi:nodetypes="ccc" />
      </g>
      <path
         sodipodi:nodetypes="cccsaaaascaaassac"
         inkscape:connector-curvature="0"
         id="path1910-6-0-3-9-8-3-61-3-0-2-0-1"
         d="m 31.979,707.5384 h 260.527 66.695 60.251 c 25.373,0 50.268,-2.1751 71.134,-14.4205 15.939,-9.3539 28.364,-25.2896 36.113,-42.0669 11.334,-24.5383 12.601,-53.0741 12.601,-80.1036 0,-27.0296 -1.267,-55.5653 -12.601,-80.1036 -7.749,-16.7773 -20.588,-32.0413 -36.113,-42.0669 -19.865,-12.8288 -66.166,-13.6883 -86.251,-14.4191 -20.469,-1.8113 -24.905,-1.8782 -33.342,-9.8186 -7.85,-7.3875 -10.997,-19.6307 -10.997,-30.4098 0,-10.7791 3.469,-22.6946 10.997,-30.4099 6.633,-6.7985 17.051,-10.3478 26.549,-10.3478 h 93.824 c 9.498,0 19.916,3.5492 26.549,10.3478 7.527,7.7153 10.996,22.1506 10.996,30.4099"
         style="fill:none;fill-opacity:1;stroke:#000000;stroke-width:15;stroke-linecap:round;stroke-linejoin:round;stroke-miterlimit:4;stroke-dasharray:none;stroke-dashoffset:0;stroke-opacity:1" />
      <path
         style="fill:url(#linearGradient9678);fill-opacity:1;stroke:none;stroke-width:14;stroke-linecap:round;stroke-linejoin:round;stroke-miterlimit:4;stroke-dasharray:none;stroke-opacity:1"
         d="m 377.242,473.7504 c 0,0 0,186.3901 0,186.3901 3.19267,3.3365 6.3852,6.67286 11.58993,9.5475 5.20473,2.87463 12.41973,5.28671 20.13794,6.09074 7.7182,0.80402 15.93921,-1.1e-4 21.83063,-2.04713 5.89141,-2.04701 9.45432,-5.33701 11.94558,-7.80116 2.49127,-2.46415 3.91314,-4.10466 5.21803,-4.88827 1.30488,-0.78361 2.49287,-0.71043 6.19437,-0.43893 3.7015,0.2715 9.9275,0.74214 15.00078,-2.09285 5.07328,-2.835 9.00177,-8.97658 10.13101,-15.24983 1.12924,-6.27324 -0.53841,-12.67733 -0.77884,-15.99337 -0.24042,-3.31604 0.9466,-3.53522 4.22953,-5.74693 3.28294,-2.2117 8.66807,-6.42023 11.45346,-10.7934 2.78539,-4.37318 2.96796,-8.90279 2.13724,-13.47352 -0.83072,-4.57073 -2.67533,-9.18268 -4.51966,-13.79395 0,0 -1.096,-1.0966 -1.096,-1.0966 3.17767,-3.85323 6.35611,-7.70741 7.12268,-12.59364 0.76656,-4.88623 -0.87782,-10.80862 -2.87529,-14.39566 -1.99747,-3.58704 -4.34753,-4.84004 -4.84983,-9.31368 -0.50229,-4.47365 0.8443,-12.16314 0.46448,-17.75025 -0.37982,-5.5871 -2.48755,-9.07766 -5.65338,-11.61844 -3.16583,-2.54078 -7.39184,-4.13415 -10.9133,-5.71426 -3.52145,-1.58011 -6.33652,-3.14608 -8.10046,-7.72262 -1.76393,-4.57655 -2.47592,-12.16285 -5.46494,-16.89283 -2.98901,-4.72999 -8.25404,-6.6035 -13.04397,-6.68337 -4.78992,-0.0799 -9.10189,1.63341 -13.01812,1.33605 -3.91623,-0.29736 -7.43296,-2.60726 -10.21088,-4.80357 -2.77792,-2.1963 -4.81017,-4.27025 -8.11011,-5.96805 -3.29993,-1.69781 -7.77099,-2.97168 -12.25294,-3.71179 -4.48195,-0.74012 -8.91495,-0.93401 -13.08993,-0.75808 -4.17498,0.17594 -8.03896,0.71923 -10.24084,2.1126 -2.20187,1.39336 -2.71917,3.62776 -3.23717,5.86519 z"
         id="path1190-2-8-8-7-0-8-9-2-9-5-4-17"
         inkscape:connector-curvature="0"
         inkscape:path-effect="#path-effect9558"
         inkscape:original-d="m 377.242,473.7504 v 186.3901 c 0,0 6.386,6.6721 9.578,10.0095 7.217,2.4116 14.432,4.8237 21.647,7.2369 8.221,-0.8049 16.442,-1.6091 24.662,-2.4123 3.563,-3.2899 7.126,-6.5798 10.687,-9.8684 1.421,-1.6402 2.843,-3.2806 4.265,-4.9208 1.188,0.073 2.376,0.146 3.562,0.2194 6.217,0.4697 12.443,0.9403 18.662,1.4107 3.928,-6.1398 7.856,-12.2817 11.783,-18.4209 -1.668,-6.4074 -3.336,-12.8114 -5.006,-19.2239 1.189,-0.2196 2.376,-0.4389 3.562,-0.6577 5.38,-4.2043 10.765,-8.413 16.153,-12.6237 0.183,-4.5356 0.366,-9.0652 0.548,-13.5961 -1.844,-4.6106 -5.533,-13.8338 -5.533,-13.8338 l -1.096,-1.0966 c 0,0 6.356,-7.7075 9.533,-11.5597 -1.644,-5.9201 -3.288,-11.8426 -4.932,-17.7631 -2.351,-1.2537 -4.701,-2.5068 -7.053,-3.7605 1.348,-7.6932 2.694,-15.3828 4.04,-23.0697 -2.105,-3.4878 -4.213,-6.9782 -6.32,-10.4664 -4.225,-1.5935 -8.451,-3.1869 -12.678,-4.7801 -2.816,-1.5667 -5.631,-3.1328 -8.447,-4.6989 -0.712,-7.5867 -1.424,-15.173 -2.136,-22.7591 -5.266,-1.874 -10.531,-3.7476 -15.797,-5.6212 -4.314,1.7139 -8.626,3.4271 -12.942,5.1423 -3.516,-2.3102 -7.033,-4.6197 -10.545,-6.9263 -2.044,-2.0858 -4.076,-4.16 -6.136,-6.2619 -4.54,-1.2937 -9.011,-2.5678 -13.523,-3.8529 -4.452,-0.195 -8.885,-0.3889 -13.345,-0.5837 -3.89,0.5467 -7.754,1.0899 -11.639,1.6365 -0.519,2.2404 -1.554,6.7123 -1.554,6.7123 z"
         sodipodi:nodetypes="cccccccccccccccccccccccscccccccc" />
      <path
         style="fill:none;stroke:#000000;stroke-width:14;stroke-linecap:round;stroke-linejoin:round;stroke-miterlimit:4;stroke-dasharray:none;stroke-opacity:1"
         d="m 378.972,491.1655 c 0,0 0,153.4443 0,153.4443 0,6.56217 0,13.1241 1.5964,17.38457 1.59639,4.26047 4.78931,6.2191 9.9938,8.40448 5.20449,2.18538 12.42043,4.59766 20.13865,5.40162 7.71822,0.80396 15.93922,-2.1e-4 21.83014,-2.04719 5.89092,-2.04698 9.45383,-5.33698 11.94531,-7.80138 2.49148,-2.46439 3.91335,-4.1049 5.21802,-4.88826 1.30467,-0.78337 2.49266,-0.71019 6.19466,-0.43866 3.702,0.27152 9.927,0.74206 15.00063,-2.09268 5.07364,-2.83474 9.00242,-8.97678 10.13163,-15.25015 1.12921,-6.27337 -0.53838,-12.67721 -0.77929,-15.99316 -0.24091,-3.31595 0.94708,-3.53531 4.23001,-5.74702 3.28294,-2.2117 8.66807,-6.42023 11.45346,-10.7934 2.78539,-4.37318 2.96796,-8.90275 1.95448,-13.65613 -1.01348,-4.75338 -3.2239,-9.73114 -5.4339,-14.70794 3.17767,-3.85323 6.35652,-7.7079 7.12291,-12.59375 0.7664,-4.88586 -0.87805,-10.80851 -2.87513,-14.39535 -1.99708,-3.58683 -4.34792,-4.84024 -4.85005,-9.31386 -0.50214,-4.47361 0.84481,-12.16322 0.46502,-17.75052 -0.3798,-5.58729 -2.48726,-9.07741 -5.65355,-11.6183 -3.16629,-2.54089 -7.39234,-4.13415 -10.91343,-5.71399 -3.5211,-1.57984 -6.33693,-3.14624 -8.10086,-7.72273 -1.76393,-4.5765 -2.47593,-12.1628 -5.4645,-16.89268 -2.98857,-4.72987 -8.25449,-6.6037 -13.04439,-6.68351 -4.78991,-0.0798 -9.10096,1.63324 -13.01757,1.33578 -3.91661,-0.29745 -7.43274,-2.60675 -10.19367,-4.59658 -2.76092,-1.98984 -4.75889,-3.65317 -8.0544,-5.20729 -3.2955,-1.55412 -7.79445,-2.9557 -12.29342,-3.7563 -4.49897,-0.80061 -8.93997,-0.9873 -13.11844,-0.66125 -4.17847,0.32604 -8.04745,1.16164 -10.24665,2.60194 -2.19919,1.44031 -2.71754,3.48302 -3.23587,5.52569 0,0 0,16.2237 0,16.2237 z"
         id="path1190-2-8-8-7-0-8-9-8-3-3-1"
         inkscape:connector-curvature="0"
         inkscape:path-effect="#path-effect9560"
         inkscape:original-d="m 378.972,491.1655 v 153.4443 c 0,0 0,13.1241 0,19.6865 3.193,1.9582 6.386,3.9167 9.578,5.8754 7.217,2.4116 14.433,4.8237 21.648,7.2369 8.221,-0.8049 16.442,-1.6091 24.661,-2.4123 3.563,-3.2899 7.126,-6.5798 10.687,-9.8684 1.422,-1.6402 2.844,-3.2806 4.265,-4.9208 1.188,0.073 2.376,0.146 3.562,0.2194 6.218,0.4697 12.443,0.9403 18.663,1.4107 3.927,-6.1398 7.856,-12.2817 11.783,-18.4209 -1.669,-6.4074 -3.336,-12.8114 -5.006,-19.2239 1.188,-0.2196 2.376,-0.4389 3.562,-0.6577 5.38,-4.2043 10.765,-8.413 16.153,-12.6237 0.183,-4.5356 0.365,-9.0652 0.548,-13.5961 -2.209,-4.9761 -6.63,-14.9304 -6.63,-14.9304 0,0 6.357,-7.7075 9.533,-11.5597 -1.643,-5.9201 -3.288,-11.8426 -4.932,-17.7631 -2.35,-1.2537 -4.701,-2.5068 -7.053,-3.7605 1.348,-7.6932 2.695,-15.3828 4.041,-23.0697 -2.106,-3.4878 -4.213,-6.9782 -6.32,-10.4664 -4.226,-1.5935 -8.452,-3.1869 -12.679,-4.7801 -2.815,-1.5667 -5.631,-3.1328 -8.447,-4.6989 -0.711,-7.5867 -1.423,-15.173 -2.136,-22.7591 -5.265,-1.874 -10.531,-3.7476 -15.797,-5.6212 -4.314,1.7139 -8.625,3.4271 -12.941,5.1423 -3.517,-2.3102 -7.033,-4.6197 -10.546,-6.9263 -2.009,-1.6728 -4.007,-3.3361 -6.032,-5.0217 -4.566,-1.4229 -9.065,-2.8243 -13.603,-4.2378 -4.46,-0.1878 -8.901,-0.3745 -13.369,-0.562 -3.889,0.8397 -7.758,1.6752 -11.638,2.5135 -0.518,2.0427 -1.555,6.128 -1.555,6.128 z"
         sodipodi:nodetypes="ccaccccccccccccccccccccsccccccccc" />
      <path
         style="fill:none;stroke:#000000;stroke-width:4.06032;stroke-linecap:round;stroke-linejoin:round;stroke-miterlimit:4;stroke-dasharray:none;stroke-opacity:1"
         d="m 444.903,484.8318 c -2.39595,0.50636 -4.78794,1.01188 -8.30895,1.76297 -3.52101,0.7511 -8.147,1.74264 -11.3807,3.62497 -3.23369,1.88234 -5.06534,4.65247 -5.94069,6.44805 -0.87535,1.79558 -0.79299,2.61504 -0.71066,3.43421"
         id="path1198-1-7-1-8-23-1-32-8-0-1-3"
         inkscape:connector-curvature="0"
         inkscape:path-effect="#path-effect9562"
         inkscape:original-d="m 444.903,484.8318 c -2.396,0.5061 -4.788,1.0116 -7.188,1.5191 -4.642,0.9948 -9.268,1.9863 -13.903,2.98 -1.832,2.7714 -3.664,5.5413 -5.497,8.3135 0.08,0.8192 0.165,1.6384 0.247,2.4576"
         sodipodi:nodetypes="ccccc" />
      <path
         style="fill:none;stroke:#000000;stroke-width:4.06032;stroke-linecap:round;stroke-linejoin:round;stroke-miterlimit:4;stroke-dasharray:none;stroke-opacity:1"
         d="m 381.38,529.953 c 3.63099,-4.25411 7.26112,-8.5072 12.04951,-9.79503 4.78839,-1.28783 10.73641,0.38962 16.68249,2.06653"
         id="path1202-4-02-6-4-91-82-9-27-9-0-8"
         inkscape:connector-curvature="0"
         inkscape:path-effect="#path-effect9564"
         inkscape:original-d="m 381.38,529.953 c 3.631,-4.2541 7.261,-8.5073 10.891,-12.76 5.947,1.6768 11.895,3.3543 17.841,5.0315"
         sodipodi:nodetypes="ccc" />
      <path
         style="fill:none;stroke:#000000;stroke-width:4.06032;stroke-linecap:round;stroke-linejoin:round;stroke-miterlimit:4;stroke-dasharray:none;stroke-opacity:1"
         d="m 482.129,518.9676 c -4.29707,-2.00324 -8.59216,-4.00556 -12.09109,-5.3148 -3.49893,-1.30923 -6.19797,-1.92411 -10.04544,-2.15443 -3.84746,-0.23032 -8.84346,-0.0759 -12.86167,1.70271 -4.01821,1.77856 -7.05901,5.18163 -9.08721,8.68849 -2.0282,3.50686 -3.04273,7.11609 -3.32417,9.88226 -0.28143,2.76617 0.17062,4.68839 0.62258,6.61017"
         id="path1206-3-4-5-1-1-2-5-3-2-9-9"
         inkscape:connector-curvature="0"
         inkscape:path-effect="#path-effect9566"
         inkscape:original-d="m 482.129,518.9676 c -4.297,-2.0034 -8.592,-4.0059 -12.889,-6.0087 -2.701,-0.6154 -5.4,-1.2305 -8.1,-1.8453 -4.995,0.1542 -9.991,0.3087 -14.987,0.4634 -3.04,3.403 -6.081,6.8059 -9.123,10.2099 -1.014,3.6097 -2.029,7.2188 -3.044,10.8292 0.452,1.9219 0.905,3.8439 1.356,5.7659"
         sodipodi:nodetypes="cccccsc" />
      <path
         style="fill:none;stroke:#000000;stroke-width:4.06032;stroke-linecap:round;stroke-linejoin:round;stroke-miterlimit:4;stroke-dasharray:none;stroke-opacity:1"
         d="m 490.359,577.1824 c -2.29497,2.62623 -4.58881,5.25117 -6.78492,7.41382 -2.19611,2.16264 -4.29025,3.85877 -7.65515,5.45082 -3.3649,1.59204 -7.99894,3.07863 -10.99293,3.81025 -2.994,0.73162 -4.347,0.70762 -5.7,0.68361"
         id="path1210-3-03-6-6-0-1-82-6-9-0-0"
         inkscape:connector-curvature="0"
         inkscape:path-effect="#path-effect9568"
         inkscape:original-d="m 490.359,577.1824 c -2.295,2.6262 -4.589,5.251 -6.885,7.8788 -2.096,1.6977 -4.19,3.394 -6.286,5.0913 -4.634,1.4865 -9.268,2.9732 -13.904,4.4604 -1.352,-0.024 -2.705,-0.048 -4.058,-0.072"
         sodipodi:nodetypes="ccccc" />
      <path
         style="fill:none;stroke:#000000;stroke-width:4.06032;stroke-linecap:round;stroke-linejoin:round;stroke-miterlimit:4;stroke-dasharray:none;stroke-opacity:1"
         d="m 410.726,653.2054 c -0.16297,-1.16536 -0.32596,-2.33087 0.13141,-4.81836 0.45738,-2.4875 1.53506,-6.29629 3.99133,-9.59955 2.45628,-3.30327 6.28956,-6.10028 10.51795,-8.04041 4.22839,-1.94013 8.85238,-3.0233 12.34732,-3.51951 3.49494,-0.49621 5.86397,-0.4059 8.23099,-0.31567"
         id="path1214-8-85-3-2-0-9-2-1-9-5-7"
         inkscape:connector-curvature="0"
         inkscape:path-effect="#path-effect9570"
         inkscape:original-d="m 410.726,653.2054 c -0.162,-1.1655 -0.325,-2.331 -0.489,-3.4967 1.078,-3.8091 2.156,-7.6178 3.233,-11.4262 3.835,-2.7983 7.668,-5.5957 11.502,-8.3926 4.623,-1.0833 9.247,-2.1664 13.869,-3.2488 2.368,0.089 4.737,0.18 7.104,0.2708"
         sodipodi:nodetypes="cccccc" />
      <path
         style="fill:none;stroke:#000000;stroke-width:4.06032;stroke-linecap:round;stroke-linejoin:round;stroke-miterlimit:4;stroke-dasharray:none;stroke-opacity:1"
         d="m 433.09,627.4533 c -0.66453,-4.96534 -1.35273,-10.1076 -2.98762,-14.30355 -1.63489,-4.19595 -4.22883,-7.5353 -7.49879,-10.24243 -3.26995,-2.70713 -7.2169,-4.78284 -11.21977,-6.0011 -4.00288,-1.21826 -8.06188,-1.5792 -12.12182,-1.94022"
         id="path1218-5-7-6-4-0-5-8-4-5-2-30"
         inkscape:connector-curvature="0"
         inkscape:path-effect="#path-effect9572"
         inkscape:original-d="m 433.09,627.4533 c -0.676,-4.9638 -1.352,-10.1077 -2.029,-15.1607 -2.593,-3.3392 -5.187,-6.6785 -7.781,-10.017 -3.946,-2.0761 -7.893,-4.1517 -11.84,-6.2267 -4.059,-0.3616 -8.118,-0.7226 -12.178,-1.0829" />
      <path
         style="fill:none;stroke:#000000;stroke-width:4.06032;stroke-linecap:round;stroke-linejoin:round;stroke-miterlimit:4;stroke-dasharray:none;stroke-opacity:1"
         d="m 405.247,556.8791 c 5.76621,2.21857 11.7277,4.51228 17.81684,5.73048 6.08914,1.2182 12.40414,1.39867 17.81661,-0.0454 5.41246,-1.44409 9.92338,-4.51272 13.13651,-8.21239 3.21314,-3.69967 5.13038,-8.03186 6.25791,-11.00968 1.12754,-2.97781 1.4659,-4.60234 1.80413,-6.22619"
         id="path1222-8-3-25-7-6-2-7-0-3-0-5"
         inkscape:connector-curvature="0"
         inkscape:path-effect="#path-effect9574"
         inkscape:original-d="m 405.247,556.8791 c 5.752,2.2555 11.728,4.5115 17.591,6.7682 6.315,0.1799 12.63,0.3604 18.944,0.5414 4.511,-3.0685 9.022,-6.137 13.531,-9.2047 1.918,-4.3315 3.835,-8.6638 5.751,-12.995 0.339,-1.6246 0.677,-3.2492 1.015,-4.8731" />
      <path
         style="fill:none;stroke:#000000;stroke-width:4.06032;stroke-linecap:round;stroke-linejoin:round;stroke-miterlimit:4;stroke-dasharray:none;stroke-opacity:1"
         d="m 429.942,563.6473 c -0.26528,3.26998 -0.53056,6.53995 0.48405,9.21386 1.01462,2.67391 3.30853,4.7491 6.26061,6.40781 2.95207,1.65871 6.56106,2.90024 9.3802,3.52089 2.81914,0.62064 4.84914,0.62064 6.87814,0.62064"
         id="path1226-7-53-75-1-6-4-59-8-7-0-8"
         inkscape:connector-curvature="0"
         inkscape:path-effect="#path-effect9576"
         inkscape:original-d="m 429.942,563.6473 c -0.265,3.27 -0.53,6.54 -0.796,9.8119 2.295,2.0755 4.589,4.1506 6.883,6.2267 3.61,1.241 7.219,2.4825 10.827,3.7246 2.03,-6e-4 4.06,-6e-4 6.089,0"
         sodipodi:nodetypes="ccccc" />
      <g
         id="g6580-6-0"
         transform="rotate(-90,-1550.8122,-2205.5018)"
         style="fill:#71ba5d;fill-opacity:1">
        <text
           inkscape:export-ydpi="20"
           inkscape:export-xdpi="20"
           xml:space="preserve"
           style="font-style:normal;font-variant:normal;font-weight:normal;font-stretch:normal;font-size:4.95418px;line-height:1.25;font-family:sans-serif;-inkscape-font-specification:sans-serif;letter-spacing:0px;word-spacing:0px;fill:#71ba5d;fill-opacity:1;stroke:#000000;stroke-width:0.48888;stroke-miterlimit:4;stroke-dasharray:none;stroke-opacity:1"
           x="-5025.4414"
           y="-662.77832"
           id="text2844-9-1-7-6-5-1-8-0-8-2-7-1-9-9-3-8-3"
           transform="scale(0.89049867,1.1229663)"><tspan
             sodipodi:role="line"
             x="-5025.4414"
             y="-662.77832"
             style="font-style:normal;font-variant:normal;font-weight:bold;font-stretch:normal;font-size:79.375px;line-height:0.9;font-family:'Courier New';-inkscape-font-specification:'Courier New Bold';fill:#71ba5d;fill-opacity:1;stroke:#000000;stroke-width:0.48888;stroke-miterlimit:4;stroke-dasharray:none;stroke-opacity:1"
             id="tspan8951-7-7-2-5-8-7-7-8-1-7-3">c</tspan></text>
        <text
           inkscape:export-ydpi="20"
           inkscape:export-xdpi="20"
           xml:space="preserve"
           style="font-style:normal;font-variant:normal;font-weight:normal;font-stretch:normal;font-size:4.95418px;line-height:1.25;font-family:sans-serif;-inkscape-font-specification:sans-serif;letter-spacing:0px;word-spacing:0px;fill:#71ba5d;fill-opacity:1;stroke:#000000;stroke-width:0.48888;stroke-miterlimit:4;stroke-dasharray:none;stroke-opacity:1"
           x="-4977.854"
           y="-661.46057"
           id="text2844-9-1-7-6-5-1-8-0-8-2-7-1-9-6-6-4-1"
           transform="scale(0.89049867,1.1229663)"><tspan
             sodipodi:role="line"
             x="-4977.854"
             y="-661.46057"
             style="font-style:normal;font-variant:normal;font-weight:bold;font-stretch:normal;font-size:79.375px;line-height:0.9;font-family:'Courier New';-inkscape-font-specification:'Courier New Bold';fill:#71ba5d;fill-opacity:1;stroke:#000000;stroke-width:0.48888;stroke-miterlimit:4;stroke-dasharray:none;stroke-opacity:1"
             id="tspan8951-7-7-2-5-8-7-7-2-8-4-7">h</tspan></text>
        <text
           inkscape:export-ydpi="20"
           inkscape:export-xdpi="20"
           xml:space="preserve"
           style="font-style:normal;font-variant:normal;font-weight:normal;font-stretch:normal;font-size:4.95418px;line-height:1.25;font-family:sans-serif;-inkscape-font-specification:sans-serif;letter-spacing:0px;word-spacing:0px;fill:#71ba5d;fill-opacity:1;stroke:#000000;stroke-width:0.48888;stroke-miterlimit:4;stroke-dasharray:none;stroke-opacity:1"
           x="-4930.5381"
           y="-662.73956"
           id="text2844-9-1-7-6-5-1-8-0-8-2-7-1-9-3-7-1-2"
           transform="scale(0.89049867,1.1229663)"><tspan
             sodipodi:role="line"
             x="-4930.5381"
             y="-662.73956"
             style="font-style:normal;font-variant:normal;font-weight:bold;font-stretch:normal;font-size:79.375px;line-height:0.9;font-family:'Courier New';-inkscape-font-specification:'Courier New Bold';fill:#71ba5d;fill-opacity:1;stroke:#000000;stroke-width:0.48888;stroke-miterlimit:4;stroke-dasharray:none;stroke-opacity:1"
             id="tspan8951-7-7-2-5-8-7-7-6-4-4-7">e</tspan></text>
        <text
           inkscape:export-ydpi="20"
           inkscape:export-xdpi="20"
           xml:space="preserve"
           style="font-style:normal;font-variant:normal;font-weight:normal;font-stretch:normal;font-size:4.95418px;line-height:1.25;font-family:sans-serif;-inkscape-font-specification:sans-serif;letter-spacing:0px;word-spacing:0px;fill:#71ba5d;fill-opacity:1;stroke:#000000;stroke-width:0.48888;stroke-miterlimit:4;stroke-dasharray:none;stroke-opacity:1"
           x="-4881.9043"
           y="-661.46057"
           id="text2844-9-1-7-6-5-1-8-0-8-2-7-1-9-8-2-9-1"
           transform="scale(0.89049867,1.1229663)"><tspan
             sodipodi:role="line"
             x="-4881.9043"
             y="-661.46057"
             style="font-style:normal;font-variant:normal;font-weight:bold;font-stretch:normal;font-size:79.375px;line-height:0.9;font-family:'Courier New';-inkscape-font-specification:'Courier New Bold';fill:#71ba5d;fill-opacity:1;stroke:#000000;stroke-width:0.48888;stroke-miterlimit:4;stroke-dasharray:none;stroke-opacity:1"
             id="tspan8951-7-7-2-5-8-7-7-88-4-7-4">m</tspan></text>
      </g>
    </g>
  </g>
</svg>
